<svg width="182" height="63" viewBox="0 0 182 63" fill="none" xmlns="http://www.w3.org/2000/svg">
<g clip-path="url(#clip0_27_42)">
<path d="M181.961 44.3125V50.3746H141.858C141.842 50.1118 141.813 49.8469 141.812 49.5818C141.808 44.7253 141.791 39.8686 141.81 35.0121C141.824 31.2657 144.046 28.3597 147.471 27.6102C148.162 27.459 148.893 27.4544 149.606 27.4536C157.729 27.4435 165.852 27.4477 173.975 27.4471C175.67 27.447 175.974 27.144 175.974 25.465C175.974 22.8545 175.974 20.2441 175.974 17.6337C175.974 15.7833 175.719 15.5181 173.922 15.5178C166.546 15.5168 159.169 15.5172 151.793 15.5172C151.076 15.5172 150.359 15.5135 149.643 15.5192C148.153 15.5311 147.826 15.8595 147.759 17.3958C147.752 17.5439 147.73 17.6913 147.708 17.9085H141.934C141.058 13.9725 144.457 9.48641 148.425 9.46568C157.354 9.41902 166.283 9.42506 175.212 9.45722C178.426 9.4688 181.613 12.2129 181.815 15.501C182.059 19.456 182.061 23.4493 181.824 27.4048C181.623 30.7634 178.516 33.4734 175.184 33.496C166.763 33.553 158.341 33.5246 149.92 33.5299C148.069 33.531 147.766 33.8305 147.765 35.674C147.764 37.8594 147.762 40.0449 147.763 42.2303C147.764 44.0167 148.052 44.3133 149.782 44.3133C160.055 44.3134 170.328 44.3129 180.601 44.3126C181.04 44.3125 181.478 44.3126 181.961 44.3126L181.961 44.3125Z" fill="white"/>
<path d="M0 50.3341V13.1259C0.172405 13.1064 0.312765 13.0766 0.453124 13.0766C4.72163 13.0759 8.99029 13.0562 13.2586 13.0874C16.305 13.1096 18.0747 14.8225 18.0902 17.9304C18.1363 27.1532 18.134 36.3765 18.091 45.5993C18.0767 48.6509 16.3698 50.3429 13.2027 50.4062C8.87647 50.4926 4.54718 50.4234 0.21921 50.418C0.166272 50.4179 0.113389 50.3788 0 50.3341L0 50.3341ZM5.26211 46.2395C7.27361 46.2395 9.18185 46.272 11.0884 46.2289C12.5403 46.1961 12.8302 45.8456 12.8759 44.3438C12.8805 44.1922 12.8773 44.0403 12.8773 43.8885C12.8772 35.8154 12.8774 27.7422 12.8756 19.6691C12.8756 19.3356 12.8774 18.9998 12.8423 18.669C12.7291 17.6036 12.4104 17.2916 11.3592 17.2554C10.5836 17.2287 9.80662 17.245 9.03028 17.2443C7.78811 17.2432 6.54597 17.244 5.26211 17.244V46.2395Z" fill="white"/>
<path d="M89.0821 27.2911V30.9339C91.1633 30.9339 93.1835 30.9798 95.197 30.8833C95.4916 30.8692 95.9897 30.1807 95.9959 29.7975C96.0565 26.0657 96.0377 22.3324 96.0278 18.5995C96.026 17.8888 95.6626 17.432 94.9374 17.4244C93.0314 17.4041 91.125 17.4175 89.112 17.4175V24.221C87.3506 24.4676 85.6821 24.7013 83.8936 24.9517C84.4424 22.4202 84.9684 19.9833 85.4997 17.5476C85.7706 16.3052 86.0744 15.0696 86.3157 13.8214C86.4176 13.2944 86.5823 13.0553 87.1761 13.0622C90.3109 13.0984 93.4466 13.0579 96.5814 13.0948C99.3885 13.1279 101.168 14.7847 101.235 17.6462C101.334 21.953 101.33 26.2651 101.246 30.5725C101.195 33.2041 100.184 34.3274 97.4103 35.2571C99.3111 40.2742 101.21 45.2868 103.14 50.3804H97.5273C96.5666 47.7565 95.5843 45.0781 94.6055 42.3982C93.8283 40.2703 93.0363 38.1477 92.2941 36.0072C92.1039 35.4589 91.847 35.2405 91.2712 35.2851C90.5905 35.3379 89.9028 35.2975 89.111 35.2975V50.3775H83.976C83.9512 50.1848 83.9026 49.9821 83.9023 49.7793C83.8965 46.1071 83.8937 42.4348 83.9003 38.7626C83.9009 38.465 83.9056 38.1354 84.0237 37.8747C85.6305 34.329 87.2576 30.7928 88.8797 27.2543C88.9472 27.2666 89.0146 27.2788 89.0821 27.2911V27.2911Z" fill="white"/>
<path d="M41.5078 20.575C44.9706 20.575 48.3746 20.4721 51.7691 20.6099C54.1741 20.7075 55.3375 22.1547 55.3489 24.6053C55.3627 27.5786 55.3157 30.5527 55.3664 33.5252C55.4058 35.8359 54.8658 37.6961 52.2161 38.2518C53.7638 42.3191 55.2798 46.3029 56.851 50.4318C55.3879 50.4318 54.0326 50.4596 52.6809 50.4013C52.4819 50.3927 52.2198 50.0065 52.1223 49.7433C50.8714 46.3675 49.5998 42.9982 48.4405 39.5896C48.0992 38.586 47.6514 38.1261 46.6107 38.3136C46.3014 38.3693 45.9742 38.3222 45.5734 38.3222V50.3809H41.5078V20.575ZM45.6279 34.9393C47.1163 34.9393 48.4861 34.9553 49.8553 34.9339C50.8446 34.9185 51.1331 34.6456 51.1803 33.6337C51.2255 32.6661 51.1995 31.6949 51.2002 30.7253C51.2015 28.9678 51.2164 27.21 51.1893 25.4528C51.1802 24.8607 51.2008 24.0898 50.3915 24.0516C48.8241 23.9777 47.2509 24.03 45.6279 24.03V34.9393Z" fill="white"/>
<path d="M76.4743 35.2291C74.7263 35.4442 73.0811 35.6467 71.2252 35.8752C76.3889 23.8213 81.4912 11.9106 86.5934 0C86.6729 0.0244887 86.7524 0.0489775 86.8319 0.0734662C84.8276 9.27833 82.8232 18.4832 80.7884 27.8279C82.6277 27.5897 84.3731 27.3637 86.2937 27.1151C80.7426 39.1831 75.2648 51.0915 69.787 63L69.499 62.9057C71.8123 53.727 74.1256 44.5484 76.4743 35.2291Z" fill="white"/>
<path d="M38.3378 50.4329C37.0593 50.4329 35.8382 50.4612 34.6207 50.4052C34.4174 50.3958 34.1001 50.0453 34.0564 49.8101C33.7147 47.967 33.4064 46.1168 33.1343 44.2618C33.0465 43.6631 32.8159 43.455 32.213 43.4703C30.6311 43.5104 29.047 43.5084 27.4649 43.4703C26.8935 43.4565 26.6937 43.6497 26.6163 44.2179C26.3751 45.9895 26.0763 47.7531 25.7959 49.5191C25.7492 49.8126 25.6823 50.1028 25.6226 50.406H21.5254C23.2507 40.469 24.9681 30.5774 26.7107 20.5406C27.9402 20.5406 29.1799 20.5311 30.4195 20.5441C31.1911 20.5522 32.163 20.3191 32.6739 20.7036C33.1256 21.0435 33.0862 22.0842 33.2247 22.8229C34.5719 30.0098 35.9107 37.1983 37.2525 44.3862C37.5797 46.1391 37.911 47.8913 38.2363 49.6446C38.2792 49.8764 38.2973 50.1129 38.3377 50.4329L38.3378 50.4329ZM29.832 24.7201L29.6153 24.7213C28.8333 29.7863 28.0513 34.8514 27.2625 39.9595H32.41C31.5408 34.8217 30.6864 29.7709 29.832 24.7201Z" fill="white"/>
<path d="M120.559 50.3876H116.341V20.6328H128.401C127.961 21.6579 127.557 22.6797 127.072 23.66C126.986 23.8342 126.563 23.9023 126.293 23.906C124.741 23.9276 123.189 23.9151 121.637 23.9142C121.315 23.914 120.993 23.9141 120.613 23.9141V33.8361H127.196V37.1877H120.559V50.3876L120.559 50.3876Z" fill="white"/>
<path d="M137.996 50.3978H133.79C133.79 49.8632 133.79 49.3592 133.79 48.8553C133.788 40.905 133.773 32.9547 133.804 25.0046C133.807 24.1309 133.585 23.8216 132.714 23.8922C131.8 23.9663 130.875 23.9087 129.772 23.9087C130.251 22.7821 130.658 21.787 131.106 20.8118C131.168 20.6773 131.437 20.5708 131.611 20.5702C135.699 20.5569 139.787 20.5599 143.942 20.5599V23.8677H137.996V50.3978H137.996Z" fill="white"/>
<path d="M60.0645 20.563H64.1049V50.3735H60.0645V20.563Z" fill="white"/>
<path d="M106.969 20.5845H110.933V50.3728H106.969V20.5845Z" fill="white"/>
<path d="M75.1528 20.5399C74.9999 20.9241 74.8971 21.1963 74.7842 21.4642C72.9103 25.9091 71.0222 30.348 69.1817 34.8071C69.0109 35.2208 69.0035 35.8129 69.154 36.2363C69.9423 38.4529 70.8267 40.6341 71.6253 42.8471C71.7762 43.2652 71.7943 43.7956 71.6957 44.2328C71.2911 46.0267 70.8178 47.8046 70.3123 49.8168C70.1037 49.35 69.9673 49.0697 69.851 48.781C68.1567 44.5747 66.454 40.3717 64.792 36.1522C64.6479 35.7862 64.6504 35.2566 64.7977 34.8916C66.6304 30.3496 68.5131 25.8284 70.3508 21.2884C70.5774 20.7284 70.8346 20.4946 71.4513 20.5236C72.6369 20.5794 73.8269 20.5399 75.1528 20.5399L75.1528 20.5399Z" fill="white"/>
</g>
<defs>
<clipPath id="clip0_27_42">
<rect width="182" height="63" fill="white"/>
</clipPath>
</defs>
</svg>
